<?xml version="1.0" encoding="UTF-8" standalone="no" ?>
<!DOCTYPE svg PUBLIC "-//W3C//DTD SVG 1.1//EN" "http://www.w3.org/Graphics/SVG/1.1/DTD/svg11.dtd">
<svg xmlns="http://www.w3.org/2000/svg" xmlns:xlink="http://www.w3.org/1999/xlink" version="1.1" width="1024" height="1024" viewBox="0 0 1024 1024" xml:space="preserve">
<desc>Created with Fabric.js 3.1.0</desc>
<defs>
</defs>
<g transform="matrix(1 0 0 1 512 512)" id="background-logo"  >
<rect style="stroke: none; stroke-width: 1; stroke-dasharray: none; stroke-linecap: butt; stroke-dashoffset: 0; stroke-linejoin: miter; stroke-miterlimit: 4; fill: rgb(255,255,255); fill-rule: nonzero; opacity: 1;"  paint-order="stroke"  x="-512" y="-512" rx="0" ry="0" width="1024" height="1024" />
</g>
<g transform="matrix(0.45660522273425497 0 0 -0.45660522273425497 512 395.2665130568356)" id="maker-logo"  >
<path style="stroke: none; stroke-width: 1; stroke-dasharray: none; stroke-linecap: butt; stroke-dashoffset: 0; stroke-linejoin: miter; stroke-miterlimit: 4; fill: rgb(44,123,229); fill-rule: nonzero; opacity: 1;"  paint-order="stroke"  transform=" translate(-815.895, -767.6175000000001)" d="m 1082.67 409.402 l -55.05 -31.785 V 708.918 L 815.895 587.73 L 604.176 708.918 V 377.617 l -55.059 31.785 v 594.508 l 55.059 -31.785 V 757.188 L 815.895 634.949 L 1027.62 757.188 v 215.21 l 55.05 31.782 z M 841.746 864.5 L 975.906 941.957 V 787.043 l -134.16 -77.457 z m -51.707 0 V 709.586 l -134.156 77.457 v 154.914 z m -108.301 122.234 l 134.157 77.456 l 134.16 -77.456 l -134.16 -77.453 z m 134.157 200.736 l 240.415 -138.8 l -55.06 -31.78 l -185.355 107.01 l -185.594 -107.15 l -55.055 31.79 z m 0 59.71 L 497.41 1063.3 V 379.555 l 106.766 -61.645 l 51.707 -29.855 v 59.707 v 272.515 l 160.012 -92.386 l 160.011 92.386 V 347.766 V 288.059 l 51.714 29.855 l 106.76 61.641 V 1063.3 l -318.485 183.88" stroke-linecap="round" />
</g>
<g transform="matrix(1.5745007680491552 0 0 1.5745007680491552 512.0074881042386 703.06159621802)"  >
<filter id="SVGID_1309" y="-20%" height="140%" x="-20%" width="140%" >
	<feGaussianBlur in="SourceAlpha" stdDeviation="0"></feGaussianBlur>
	<feOffset dx="0" dy="0" result="oBlur" ></feOffset>
	<feFlood flood-color="rgb(0,0,0)" flood-opacity="1"/>
	<feComposite in2="oBlur" operator="in" />
	<feMerge>
		<feMergeNode></feMergeNode>
		<feMergeNode in="SourceGraphic"></feMergeNode>
	</feMerge>
</filter>
<path style="stroke: none; stroke-width: 1; stroke-dasharray: none; stroke-linecap: butt; stroke-dashoffset: 0; stroke-linejoin: miter; stroke-miterlimit: 4; fill: rgb(44,123,229); fill-rule: nonzero; opacity: 1;filter: url(#SVGID_1309);"  paint-order="stroke"  transform=" translate(-135.29, 18.465000000000003)" d="M 29.05 0 L 6.24 0 L 6.24 -22.71 L 34.63 -22.71 L 34.63 -31.24 L 17.61 -31.24 L 17.61 -28.39 L 6.24 -28.39 L 6.24 -34.43 L 6.24 -39.76 L 40.18 -39.76 Q 41.19 -38.83 45.94 -34.08 L 45.94 -34.08 L 45.94 0 L 34.63 0 L 34.63 -2.84 Q 33.21 -2.11 29.05 0 L 29.05 0 Z M 17.61 -11.72 L 17.61 -8.53 L 28.98 -8.53 Q 29.54 -8.81 34.63 -11.3 L 34.63 -11.3 L 34.63 -14.21 L 26.14 -14.21 L 17.61 -14.21 L 17.61 -11.72 Z M 58.48 14.21 L 58.48 -13.83 L 58.48 -39.76 L 64.17 -39.76 L 69.86 -39.76 L 69.86 -34.08 L 78.38 -39.76 L 98.18 -39.76 L 98.18 -18.44 L 98.18 -11.37 L 98.18 -5.69 L 96.13 -3.54 L 92.56 0 L 69.86 0 L 69.86 14.21 L 58.48 14.21 Z M 69.86 -17.06 L 69.86 -8.53 L 86.88 -8.53 L 86.88 -31.24 L 78.38 -31.24 Q 76.58 -29.95 74.05 -28.39 L 74.05 -28.39 Q 73.7 -28.19 72.2 -27.15 Q 70.69 -26.1 69.86 -25.55 L 69.86 -25.55 L 69.86 -17.06 Z M 110.73 14.21 L 110.73 -13.83 L 110.73 -39.76 L 116.42 -39.76 L 122.1 -39.76 L 122.1 -34.08 L 130.63 -39.76 L 150.42 -39.76 L 150.42 -18.44 L 150.42 -11.37 L 150.42 -5.69 L 148.38 -3.54 L 144.81 0 L 122.1 0 L 122.1 14.21 L 110.73 14.21 Z M 122.1 -17.06 L 122.1 -8.53 L 139.12 -8.53 L 139.12 -31.24 L 130.63 -31.24 Q 128.83 -29.95 126.3 -28.39 L 126.3 -28.39 Q 125.95 -28.19 124.44 -27.15 Q 122.93 -26.1 122.1 -25.55 L 122.1 -25.55 L 122.1 -17.06 Z M 174.48 0 L 163.11 0 L 163.11 -17.06 L 163.11 -34.08 L 167.31 -34.08 L 174.48 -34.08 L 174.48 0 Z M 174.48 -36.92 L 163.11 -36.92 L 163.11 -45.45 L 174.48 -45.45 L 174.48 -36.92 Z M 226.8 0 L 187.1 0 L 187.1 -11.37 L 194.14 -11.37 L 198.47 -11.37 L 198.47 -10.37 L 198.47 -8.53 L 215.5 -8.53 L 215.5 -13 Q 203.85 -16.36 187.1 -21.42 L 187.1 -21.42 L 187.1 -39.76 L 226.8 -39.76 L 226.8 -34.08 L 226.8 -28.39 L 221.18 -28.39 L 215.5 -28.39 L 215.5 -31.24 L 198.47 -31.24 L 198.47 -27.11 Q 210.54 -23.61 226.8 -18.69 L 226.8 -18.69 L 226.8 0 Z M 241.64 -31.24 L 235.95 -31.24 L 235.95 -39.76 L 241.64 -39.76 L 241.64 -46.87 L 241.64 -51.14 L 247.32 -51.14 L 252.97 -51.14 L 252.97 -44.03 Q 252.97 -39.73 252.97 -39.76 L 252.97 -39.76 L 257.24 -39.76 L 264.34 -39.76 L 264.34 -34.43 L 264.34 -31.24 L 260.08 -31.24 L 252.97 -31.24 L 252.97 -8.53 L 261.5 -8.53 L 261.5 0 L 247.32 0 Q 246.45 -0.8 241.64 -5.69 L 241.64 -5.69 L 241.64 -31.24 Z" stroke-linecap="round" />
</g>
</svg>